<?xml version="1.0" encoding="UTF-8" standalone="no"?>
<!-- Created with Inkscape (http://www.inkscape.org/) -->

<svg
   width="300"
   height="300"
   viewBox="0 0 79.374998 79.375"
   version="1.1"
   id="svg155"
   inkscape:version="1.2 (dc2aedaf03, 2022-05-15)"
   sodipodi:docname="instaCafe.svg"
   xmlns:inkscape="http://www.inkscape.org/namespaces/inkscape"
   xmlns:sodipodi="http://sodipodi.sourceforge.net/DTD/sodipodi-0.dtd"
   xmlns="http://www.w3.org/2000/svg"
   xmlns:svg="http://www.w3.org/2000/svg">
  <sodipodi:namedview
     id="namedview157"
     pagecolor="#ffffff"
     bordercolor="#000000"
     borderopacity="0.25"
     inkscape:showpageshadow="2"
     inkscape:pageopacity="0.0"
     inkscape:pagecheckerboard="0"
     inkscape:deskcolor="#d1d1d1"
     inkscape:document-units="px"
     showgrid="false"
     inkscape:zoom="0.78127806"
     inkscape:cx="154.87444"
     inkscape:cy="254.71085"
     inkscape:window-width="1920"
     inkscape:window-height="1057"
     inkscape:window-x="-8"
     inkscape:window-y="-8"
     inkscape:window-maximized="1"
     inkscape:current-layer="layer1" />
  <defs
     id="defs152" />
  <g
     inkscape:label="Capa 1"
     inkscape:groupmode="layer"
     id="layer1">
    <path
       d="m 79.374999,39.687501 c 0,21.918356 -17.769354,39.687498 -39.687972,39.687498 C 17.768409,79.374999 0,61.605857 0,39.687501 0,17.769144 17.768409,0 39.687027,0 61.605645,0 79.374999,17.769144 79.374999,39.687501"
       style="fill:#361307;fill-opacity:1;fill-rule:nonzero;stroke:none;stroke-width:0.0236829"
       id="path60"
       inkscape:export-filename="..\Images\InstagramCafe.png"
       inkscape:export-xdpi="96"
       inkscape:export-ydpi="96"
       inkscape:label="IG" />
    <g
       id="g2108"
       style="fill:#d19c1d;fill-opacity:1"
       inkscape:label="Instagram"
       transform="matrix(0.23683002,0,0,-0.23682719,-227.88353,134.86361)">
      <path
         d="m 1181.82,465.27 c -6.36,0 -11.52,-5.15 -11.52,-11.52 0,-6.36 5.16,-11.51 11.52,-11.51 6.36,0 11.52,5.15 11.52,11.51 0,6.37 -5.16,11.52 -11.52,11.52"
         style="fill:#e9eaec;fill-opacity:1;fill-rule:nonzero;stroke:none;stroke-width:0.1"
         id="path62" />
      <path
         d="m 1130.61,371.12 c -17.09,0 -31,13.9 -31,30.99 0,17.1 13.91,31 31,31 17.09,0 30.99,-13.9 30.99,-31 0,-17.09 -13.9,-30.99 -30.99,-30.99 z m 0,79.38 c -26.68,0 -48.39,-21.7 -48.39,-48.39 0,-26.68 21.71,-48.38 48.39,-48.38 26.68,0 48.39,21.7 48.39,48.38 0,26.69 -21.71,48.39 -48.39,48.39"
         style="fill:#e9eaec;fill-opacity:1;fill-rule:nonzero;stroke:none;stroke-width:0.1"
         id="path64" />
      <path
         d="m 1090.58,481.87 c -22.35,0 -40.54,-18.18 -40.54,-40.53 v -78.45 c 0,-22.35 18.19,-40.54 40.54,-40.54 h 78.45 c 22.35,0 40.53,18.19 40.53,40.54 v 78.45 c 0,22.35 -18.18,40.53 -40.53,40.53 z m 78.45,-178 h -78.45 c -32.55,0 -59.02,26.48 -59.02,59.02 v 78.45 c 0,32.54 26.47,59.02 59.02,59.02 h 78.45 c 32.54,0 59.02,-26.48 59.02,-59.02 v -78.45 c 0,-32.54 -26.48,-59.02 -59.02,-59.02"
         style="fill:#e9eaec;fill-opacity:1;fill-rule:nonzero;stroke:none;stroke-width:0.1"
         id="path66" />
    </g>
  </g>
</svg>
