<?xml version="1.0" encoding="UTF-8" standalone="no"?>
<!-- Created with Inkscape (http://www.inkscape.org/) -->

<svg
   width="300"
   height="300"
   viewBox="0 0 79.374998 79.375"
   version="1.1"
   id="svg155"
   inkscape:version="1.2 (dc2aedaf03, 2022-05-15)"
   sodipodi:docname="wapCafe.svg"
   xmlns:inkscape="http://www.inkscape.org/namespaces/inkscape"
   xmlns:sodipodi="http://sodipodi.sourceforge.net/DTD/sodipodi-0.dtd"
   xmlns="http://www.w3.org/2000/svg"
   xmlns:svg="http://www.w3.org/2000/svg">
  <sodipodi:namedview
     id="namedview157"
     pagecolor="#ffffff"
     bordercolor="#000000"
     borderopacity="0.25"
     inkscape:showpageshadow="2"
     inkscape:pageopacity="0.0"
     inkscape:pagecheckerboard="0"
     inkscape:deskcolor="#d1d1d1"
     inkscape:document-units="px"
     showgrid="false"
     inkscape:zoom="0.78127806"
     inkscape:cx="154.87444"
     inkscape:cy="254.71085"
     inkscape:window-width="1920"
     inkscape:window-height="1057"
     inkscape:window-x="-8"
     inkscape:window-y="-8"
     inkscape:window-maximized="1"
     inkscape:current-layer="layer1" />
  <defs
     id="defs152" />
  <g
     inkscape:label="Capa 1"
     inkscape:groupmode="layer"
     id="layer1">
    <path
       d="m 79.374999,39.6875 c 0,21.918356 -17.767307,39.687499 -39.688685,39.687499 C 17.767305,79.374999 0,61.605856 0,39.6875 0,17.769143 17.767305,0 39.686314,0 61.607692,0 79.374999,17.769143 79.374999,39.6875"
       style="display:inline;fill:#361307;fill-opacity:1;fill-rule:nonzero;stroke:none;stroke-width:0.0236831"
       id="path72"
       inkscape:export-filename="..\Images\WPPCafe.png"
       inkscape:export-xdpi="96"
       inkscape:export-ydpi="96"
       inkscape:label="WA" />
    <g
       id="g2112"
       style="fill:#d19c1d;fill-opacity:1"
       inkscape:label="WhatsApp"
       transform="matrix(0.23683424,0,0,-0.23682719,-509.88517,134.86361)">
      <path
         d="m 2278.29,340.62 3.3,-1.97 c 12.12,-7.22 25.9,-11.03 39.85,-11.03 43.05,0 78.07,35.01 78.07,78.06 0,43.04 -35.02,78.06 -78.07,78.06 -43.04,0 -78.06,-35.02 -78.06,-78.06 0,-14.21 3.95,-28.21 11.42,-40.47 l 2.02,-3.33 -7.8,-29.1 z m -55,-33.57 13.97,52.13 c -7.91,14.27 -12.07,30.27 -12.07,46.5 0,53.07 43.18,96.26 96.25,96.26 53.08,0 96.26,-43.19 96.26,-96.26 0,-53.08 -43.18,-96.26 -96.26,-96.26 -15.93,0 -31.67,4.02 -45.75,11.66 l -52.4,-14.03"
         style="fill:#e9eaec;fill-opacity:1;fill-rule:nonzero;stroke:none;stroke-width:0.1"
         id="path74" />
      <path
         d="m 2356.14,392.29 c -3.96,2.37 -9.12,5.02 -13.78,3.11 -3.58,-1.47 -5.87,-7.07 -8.19,-9.93 -1.19,-1.47 -2.61,-1.7 -4.44,-0.97 -13.44,5.36 -23.74,14.33 -31.16,26.69 -1.25,1.93 -1.03,3.44 0.48,5.22 2.25,2.64 5.06,5.64 5.66,9.19 0.61,3.56 -1.06,7.71 -2.53,10.88 -1.87,4.04 -3.97,9.81 -8.03,12.1 -3.72,2.11 -8.63,0.93 -11.95,-1.77 -5.72,-4.67 -8.49,-11.98 -8.41,-19.22 0.03,-2.06 0.28,-4.11 0.76,-6.1 1.16,-4.78 3.37,-9.24 5.85,-13.48 1.88,-3.2 3.91,-6.31 6.11,-9.29 7.19,-9.77 16.13,-18.26 26.49,-24.6 5.17,-3.17 10.75,-5.95 16.52,-7.86 6.47,-2.13 12.24,-4.36 19.23,-3.03 7.32,1.39 14.53,5.92 17.44,12.97 0.86,2.09 1.29,4.41 0.81,6.62 -1,4.56 -7.17,7.27 -10.86,9.47"
         style="fill:#e9eaec;fill-opacity:1;fill-rule:evenodd;stroke:none;stroke-width:0.1"
         id="path76" />
    </g>
  </g>
</svg>
